<?xml version="1.0" standalone="no"?>
<!DOCTYPE svg PUBLIC "-//W3C//DTD SVG 20010904//EN"
 "http://www.w3.org/TR/2001/REC-SVG-20010904/DTD/svg10.dtd">
<svg version="1.0" xmlns="http://www.w3.org/2000/svg"
 width="319.000000pt" height="319.000000pt" viewBox="0 0 319.000000 319.000000"
 preserveAspectRatio="xMidYMid meet">
<metadata>
Created by potrace 1.11, written by Peter Selinger 2001-2013
</metadata>
<g transform="translate(0.000000,319.000000) scale(0.100000,-0.100000)"
fill="#000000" stroke="none">
<path d="M565 3068 c-110 -36 -213 -124 -257 -218 -34 -72 -49 -170 -43 -267
2 -43 7 -531 10 -1085 6 -1090 5 -1071 61 -1165 35 -61 116 -137 177 -167 151
-74 284 -60 469 50 91 53 101 59 342 198 199 114 223 126 268 126 51 0 97 -18
136 -54 47 -42 55 -73 60 -219 4 -122 7 -139 23 -148 22 -11 59 4 60 24 0 7 0
72 -1 146 -1 112 -4 140 -22 177 -26 57 -92 120 -146 141 -35 13 -40 18 -28
25 9 5 14 13 11 18 -3 5 36 37 86 71 85 57 93 60 116 48 20 -11 28 -11 46 1
12 7 58 35 102 60 74 43 256 150 465 273 47 27 99 57 115 67 126 73 159 96
208 149 79 86 101 147 102 281 0 98 -2 109 -33 176 -52 110 -104 154 -352 297
-118 68 -287 166 -374 217 -88 50 -234 135 -325 187 -91 53 -179 103 -196 113
-16 10 -84 49 -150 87 -66 38 -217 126 -335 195 -274 159 -316 181 -366 196
-49 14 -187 15 -229 0z m436 -2741 c-10 -9 -11 -8 -5 6 3 10 9 15 12 12 3 -3
0 -11 -7 -18z"/>
</g>
</svg>
